<svg width="1590" height="1386" viewBox="0 0 1590 1386" fill="none" xmlns="http://www.w3.org/2000/svg">
<mask id="path-1-outside-1_2147_15" maskUnits="userSpaceOnUse" x="0" y="0" width="1590" height="1386" fill="black">
<rect fill="white" width="1590" height="1386"/>
<path d="M1060.67 25.7867C1162.19 10.2093 1241.73 0.537961 1303.77 9.34041C1334.87 13.7522 1361.69 22.8156 1384.75 38.1773C1407.81 53.5452 1426.94 75.1117 1442.8 104.294C1474.45 162.528 1493.18 251.327 1504.19 382.536C1515.18 513.557 1547.95 640.8 1567.76 758.968C1587.51 876.822 1594.31 985.5 1552.46 1077.87C1510.52 1170.43 1420.09 1245.94 1247.04 1298.3C1074.05 1350.65 818.086 1380 444.362 1380C299.829 1380 203.518 1324.5 139.88 1237.1C76.3804 1149.89 45.6011 1031.18 31.3342 904.99C17.062 778.751 19.2779 644.628 22.0461 526.372C24.8192 407.901 28.12 305.716 16.1955 242.74C10.1885 211.015 6.56455 185.497 6.06072 165.071C5.55767 144.674 8.15212 129.002 14.9035 117.215C21.7283 105.3 32.5686 97.7483 47.6525 93.1451C62.6328 88.5736 81.9773 86.8507 106.143 86.6285C202.994 85.738 380.597 108.886 683.559 78.273C835.012 62.9692 959.008 41.3866 1060.67 25.7867ZM480.578 1376.9C477.9 1376.92 475.215 1376.93 472.525 1376.94C477.907 1376.92 483.264 1376.89 488.596 1376.86L480.578 1376.9ZM1501.73 388.932C1501.76 389.311 1501.8 389.691 1501.83 390.07C1501.7 388.667 1501.58 387.264 1501.46 385.86L1501.73 388.932ZM673.955 82.2418C674.359 82.2022 674.764 82.1624 675.168 82.1226C674.764 82.1624 674.359 82.2022 673.955 82.2418ZM683.861 81.2574L681.99 81.4439C682.613 81.3814 683.236 81.3214 683.86 81.2584C686.228 81.0191 688.59 80.778 690.945 80.5357L683.861 81.2574ZM746.183 74.4586L752.909 73.6666C753.581 73.5869 754.252 73.5043 754.923 73.4244C752.021 73.7704 749.107 74.1164 746.183 74.4586ZM758.906 72.9469C760.962 72.6998 763.013 72.4535 765.058 72.2047C763.013 72.4534 760.962 72.6998 758.906 72.9469ZM1352.42 24.7681C1352.83 24.9271 1353.23 25.087 1353.63 25.2486C1352.83 24.9255 1352.02 24.6079 1351.21 24.2955L1352.42 24.7681ZM1128.92 18.9381C1127.49 19.1271 1126.06 19.319 1124.62 19.5123L1128.92 18.939C1130.35 18.75 1131.77 18.5632 1133.19 18.3785L1128.92 18.9381ZM1333.55 18.4976C1333.98 18.6179 1334.41 18.7391 1334.85 18.8619C1333.98 18.6164 1333.11 18.3757 1332.24 18.1402L1333.55 18.4976ZM1181.97 12.7701C1180.79 12.8837 1179.61 13.0006 1178.42 13.1187C1180.91 12.8709 1183.38 12.6324 1185.84 12.4049L1181.97 12.7701ZM1215.73 10.1148C1214.52 10.1856 1213.31 10.2603 1212.1 10.3375L1215.73 10.1158C1216.94 10.045 1218.14 9.977 1219.34 9.91268L1215.73 10.1148Z"/>
</mask>
<path d="M1060.67 25.7867C1162.19 10.2093 1241.73 0.537961 1303.77 9.34041C1334.87 13.7522 1361.69 22.8156 1384.75 38.1773C1407.81 53.5452 1426.94 75.1117 1442.8 104.294C1474.45 162.528 1493.18 251.327 1504.19 382.536C1515.18 513.557 1547.95 640.8 1567.76 758.968C1587.51 876.822 1594.31 985.5 1552.46 1077.87C1510.52 1170.43 1420.09 1245.94 1247.04 1298.3C1074.05 1350.65 818.086 1380 444.362 1380C299.829 1380 203.518 1324.5 139.88 1237.1C76.3804 1149.89 45.6011 1031.18 31.3342 904.99C17.062 778.751 19.2779 644.628 22.0461 526.372C24.8192 407.901 28.12 305.716 16.1955 242.74C10.1885 211.015 6.56455 185.497 6.06072 165.071C5.55767 144.674 8.15212 129.002 14.9035 117.215C21.7283 105.3 32.5686 97.7483 47.6525 93.1451C62.6328 88.5736 81.9773 86.8507 106.143 86.6285C202.994 85.738 380.597 108.886 683.559 78.273C835.012 62.9692 959.008 41.3866 1060.67 25.7867ZM480.578 1376.9C477.9 1376.92 475.215 1376.93 472.525 1376.94C477.907 1376.92 483.264 1376.89 488.596 1376.86L480.578 1376.9ZM1501.73 388.932C1501.76 389.311 1501.8 389.691 1501.83 390.07C1501.7 388.667 1501.58 387.264 1501.46 385.86L1501.73 388.932ZM673.955 82.2418C674.359 82.2022 674.764 82.1624 675.168 82.1226C674.764 82.1624 674.359 82.2022 673.955 82.2418ZM683.861 81.2574L681.99 81.4439C682.613 81.3814 683.236 81.3214 683.86 81.2584C686.228 81.0191 688.59 80.778 690.945 80.5357L683.861 81.2574ZM746.183 74.4586L752.909 73.6666C753.581 73.5869 754.252 73.5043 754.923 73.4244C752.021 73.7704 749.107 74.1164 746.183 74.4586ZM758.906 72.9469C760.962 72.6998 763.013 72.4535 765.058 72.2047C763.013 72.4534 760.962 72.6998 758.906 72.9469ZM1352.42 24.7681C1352.83 24.9271 1353.23 25.087 1353.63 25.2486C1352.83 24.9255 1352.02 24.6079 1351.21 24.2955L1352.42 24.7681ZM1128.92 18.9381C1127.49 19.1271 1126.06 19.319 1124.62 19.5123L1128.92 18.939C1130.35 18.75 1131.77 18.5632 1133.19 18.3785L1128.92 18.9381ZM1333.55 18.4976C1333.98 18.6179 1334.41 18.7391 1334.85 18.8619C1333.98 18.6164 1333.11 18.3757 1332.24 18.1402L1333.55 18.4976ZM1181.97 12.7701C1180.79 12.8837 1179.61 13.0006 1178.42 13.1187C1180.91 12.8709 1183.38 12.6324 1185.84 12.4049L1181.97 12.7701ZM1215.73 10.1148C1214.52 10.1856 1213.31 10.2603 1212.1 10.3375L1215.73 10.1158C1216.94 10.045 1218.14 9.977 1219.34 9.91268L1215.73 10.1148Z" fill="black"/>
<path d="M1060.67 25.7867L1059.76 19.8561L1059.76 19.8561L1060.67 25.7867ZM1303.77 9.34041L1304.62 3.39991L1304.62 3.39991L1303.77 9.34041ZM1384.75 38.1773L1388.08 33.1842L1388.08 33.1842L1384.75 38.1773ZM1442.8 104.294L1448.07 101.429L1448.07 101.429L1442.8 104.294ZM1504.19 382.536L1498.21 383.037L1498.21 383.037L1504.19 382.536ZM1567.76 758.968L1573.68 757.977L1573.68 757.977L1567.76 758.968ZM1552.46 1077.87L1557.92 1080.35L1557.92 1080.35L1552.46 1077.87ZM1247.04 1298.3L1248.78 1304.04L1248.78 1304.04L1247.04 1298.3ZM444.362 1380L444.362 1386H444.362L444.362 1380ZM139.88 1237.1L135.03 1240.63L135.03 1240.63L139.88 1237.1ZM31.3342 904.99L25.3721 905.664L25.3721 905.664L31.3342 904.99ZM22.0461 526.372L16.0477 526.231L16.0477 526.231L22.0461 526.372ZM16.1955 242.74L10.3002 243.856L10.3002 243.856L16.1955 242.74ZM6.06072 165.071L0.0625416 165.219L0.062542 165.219L6.06072 165.071ZM14.9035 117.215L9.6971 114.233L9.69707 114.233L14.9035 117.215ZM47.6525 93.1451L45.9012 87.4064L45.9012 87.4064L47.6525 93.1451ZM106.143 86.6285L106.088 80.6288L106.088 80.6288L106.143 86.6285ZM683.559 78.273L684.162 84.2426L684.162 84.2426L683.559 78.273ZM480.578 1376.9L480.609 1382.9L480.613 1382.9L480.578 1376.9ZM488.596 1376.86L488.634 1382.86L488.562 1370.86L488.596 1376.86ZM1501.73 388.932L1495.75 389.457L1495.75 389.465L1501.73 388.932ZM1501.46 385.86L1507.44 385.336L1495.48 386.377L1501.46 385.86ZM673.955 82.2418L673.37 76.2704L674.54 88.2132L673.955 82.2418ZM675.168 82.1226L675.755 88.0938L674.581 76.1514L675.168 82.1226ZM683.861 81.2574L684.456 87.2278L684.469 87.2265L683.861 81.2574ZM681.99 81.4439L681.391 75.474L682.586 87.4143L681.99 81.4439ZM683.86 81.2584L684.463 87.228L684.463 87.228L683.86 81.2584ZM690.945 80.5357L691.559 86.5042L690.336 74.5666L690.945 80.5357ZM746.183 74.4586L745.481 68.4997L746.88 80.4179L746.183 74.4586ZM752.909 73.6666L753.611 79.6254L753.616 79.6248L752.909 73.6666ZM754.923 73.4244L755.633 79.3822L754.213 67.4666L754.923 73.4244ZM765.058 72.2047L765.782 78.1608L764.333 66.2486L765.058 72.2047ZM1352.42 24.7681L1354.62 19.1836L1354.61 19.1797L1354.6 19.1759L1352.42 24.7681ZM1351.21 24.2955L1353.36 18.695L1349.03 29.8878L1351.21 24.2955ZM1128.92 18.9381L1128.14 12.989L1128.13 12.99L1128.92 18.9381ZM1124.62 19.5123L1123.82 13.5658L1125.42 25.4596L1124.62 19.5123ZM1128.92 18.939L1128.13 12.991L1128.13 12.9918L1128.92 18.939ZM1133.19 18.3785L1133.97 24.3275L1132.41 12.4288L1133.19 18.3785ZM1333.55 18.4976L1335.14 12.7147L1335.14 12.7125L1335.13 12.7103L1333.55 18.4976ZM1332.24 18.1402L1333.8 12.347L1330.66 23.9276L1332.24 18.1402ZM1181.97 12.7701L1181.41 6.79665L1181.39 6.79772L1181.97 12.7701ZM1185.84 12.4049L1186.4 18.3783L1185.29 6.43046L1185.84 12.4049ZM1215.73 10.1148L1215.39 4.12424L1215.39 4.12467L1215.38 4.12512L1215.73 10.1148ZM1212.1 10.3375L1211.72 4.34951L1212.46 16.3264L1212.1 10.3375ZM1215.73 10.1158L1215.38 4.12608L1215.37 4.12693L1215.73 10.1158ZM1219.34 9.91268L1219.67 15.9033L1219.01 3.92132L1219.34 9.91268ZM1060.67 25.7867L1061.58 31.7173C1163.27 16.1136 1241.92 6.62454 1302.93 15.2809L1303.77 9.34041L1304.62 3.39991C1241.54 -5.54862 1161.11 4.30512 1059.76 19.8561L1060.67 25.7867ZM1303.77 9.34041L1302.93 15.2809C1333.36 19.5987 1359.28 28.4189 1381.42 43.1704L1384.75 38.1773L1388.08 33.1842C1364.11 17.2123 1336.37 7.90575 1304.62 3.39991L1303.77 9.34041ZM1384.75 38.1773L1381.42 43.1704C1403.55 57.9158 1422.06 78.6939 1437.53 107.159L1442.8 104.294L1448.07 101.429C1431.83 71.5296 1412.07 49.1747 1388.08 33.1842L1384.75 38.1773ZM1442.8 104.294L1437.53 107.158C1468.54 164.217 1487.21 251.928 1498.21 383.037L1504.19 382.536L1510.16 382.034C1499.15 250.726 1480.36 160.839 1448.07 101.429L1442.8 104.294ZM1504.19 382.536L1498.21 383.037C1509.22 514.336 1542.16 642.53 1561.84 759.96L1567.76 758.968L1573.68 757.977C1553.75 639.071 1521.13 512.778 1510.16 382.034L1504.19 382.536ZM1567.76 758.968L1561.84 759.96C1581.58 877.705 1588.04 984.793 1546.99 1075.39L1552.46 1077.87L1557.92 1080.35C1600.57 986.206 1593.45 875.939 1573.68 757.977L1567.76 758.968ZM1552.46 1077.87L1546.99 1075.39C1506.03 1165.81 1417.4 1240.48 1245.31 1292.56L1247.04 1298.3L1248.78 1304.04C1422.77 1251.39 1515.02 1175.05 1557.92 1080.35L1552.46 1077.87ZM1247.04 1298.3L1245.31 1292.56C1073.16 1344.65 817.889 1374 444.362 1374L444.362 1380L444.362 1386C818.283 1386 1074.94 1356.65 1248.78 1304.04L1247.04 1298.3ZM444.362 1380L444.362 1374C301.647 1374 207.181 1319.33 144.731 1233.57L139.88 1237.1L135.03 1240.63C199.854 1329.66 298.01 1386 444.362 1386L444.362 1380ZM139.88 1237.1L144.731 1233.57C82.1425 1147.61 51.5215 1030.14 37.2962 904.316L31.3342 904.99L25.3721 905.664C39.6808 1032.23 70.6183 1152.17 135.03 1240.63L139.88 1237.1ZM31.3342 904.99L37.2962 904.316C23.0761 778.538 25.2756 644.799 28.0444 526.512L22.0461 526.372L16.0477 526.231C13.2803 644.457 11.048 778.965 25.3721 905.664L31.3342 904.99ZM22.0461 526.372L28.0444 526.512C30.8083 408.44 34.1661 305.397 22.0907 241.624L16.1955 242.74L10.3002 243.856C22.0739 306.036 18.8302 407.362 16.0477 526.231L22.0461 526.372ZM16.1955 242.74L22.0907 241.624C16.0979 209.974 12.5503 184.845 12.0589 164.923L6.06072 165.071L0.062542 165.219C0.578802 186.149 4.27904 212.057 10.3002 243.856L16.1955 242.74ZM6.06072 165.071L12.0589 164.923C11.5669 144.973 14.1549 130.594 20.1099 120.198L14.9035 117.215L9.69707 114.233C2.14933 127.411 -0.451518 144.376 0.0625416 165.219L6.06072 165.071ZM14.9035 117.215L20.1099 120.198C25.9912 109.93 35.3818 103.163 49.4038 98.8838L47.6525 93.1451L45.9012 87.4064C29.7554 92.3337 17.4654 100.671 9.6971 114.233L14.9035 117.215ZM47.6525 93.1451L49.4038 98.8838C63.5288 94.5733 82.1634 92.8493 106.198 92.6282L106.143 86.6285L106.088 80.6288C81.7911 80.8522 61.7367 82.5739 45.9012 87.4064L47.6525 93.1451ZM106.143 86.6285L106.198 92.6282C202.15 91.746 380.908 114.885 684.162 84.2426L683.559 78.273L682.956 72.3034C380.286 102.887 203.838 79.73 106.088 80.6288L106.143 86.6285ZM683.559 78.273L684.162 84.2426C835.816 68.9185 960.039 47.2986 1061.58 31.7173L1060.67 25.7867L1059.76 19.8561C957.976 35.4747 834.208 57.0198 682.956 72.3034L683.559 78.273ZM480.578 1376.9L480.547 1370.9C477.871 1370.92 475.189 1370.93 472.5 1370.94L472.525 1376.94L472.549 1382.94C475.242 1382.93 477.929 1382.92 480.609 1382.9L480.578 1376.9ZM472.525 1376.94L472.549 1382.94C477.935 1382.92 483.297 1382.89 488.634 1382.86L488.596 1376.86L488.558 1370.86C483.231 1370.89 477.878 1370.92 472.5 1370.94L472.525 1376.94ZM488.596 1376.86L488.562 1370.86L480.544 1370.9L480.578 1376.9L480.613 1382.9L488.63 1382.86L488.596 1376.86ZM1501.73 388.932L1495.75 389.465C1495.79 389.847 1495.82 390.239 1495.85 390.608L1501.83 390.07L1507.81 389.532C1507.77 389.143 1507.74 388.776 1507.7 388.4L1501.73 388.932ZM1501.83 390.07L1507.81 389.532C1507.68 388.135 1507.56 386.739 1507.44 385.343L1501.46 385.86L1495.48 386.377C1495.6 387.789 1495.73 389.199 1495.85 390.608L1501.83 390.07ZM1501.46 385.86L1495.48 386.384L1495.75 389.457L1501.73 388.932L1507.7 388.408L1507.44 385.336L1501.46 385.86ZM673.955 82.2418L674.54 88.2132C674.945 88.1736 675.353 88.1334 675.755 88.0939L675.168 82.1226L674.581 76.1514C674.174 76.1914 673.773 76.2309 673.371 76.2703L673.955 82.2418ZM675.168 82.1226L674.581 76.1515C674.176 76.1913 673.773 76.2309 673.37 76.2704L673.955 82.2418L674.54 88.2132C674.946 88.1735 675.351 88.1336 675.755 88.0938L675.168 82.1226ZM683.861 81.2574L683.265 75.287L681.395 75.4736L681.99 81.4439L682.586 87.4143L684.456 87.2278L683.861 81.2574ZM681.99 81.4439L682.59 87.4139C683.136 87.3591 683.881 87.2867 684.463 87.228L683.86 81.2584L683.256 75.2888C682.591 75.356 682.09 75.4038 681.391 75.474L681.99 81.4439ZM683.86 81.2584L684.463 87.228C686.835 86.9883 689.201 86.7469 691.559 86.5042L690.945 80.5357L690.33 74.5672C687.979 74.8092 685.621 75.0499 683.256 75.2888L683.86 81.2584ZM690.945 80.5357L690.336 74.5666L683.252 75.2883L683.861 81.2574L684.469 87.2265L691.553 86.5048L690.945 80.5357ZM746.183 74.4586L746.884 80.4174L753.611 79.6254L752.909 73.6666L752.208 67.7077L745.481 68.4997L746.183 74.4586ZM752.909 73.6666L753.616 79.6248C754.242 79.5506 755.041 79.4528 755.633 79.3822L754.923 73.4244L754.213 67.4666C753.464 67.5558 752.921 67.6231 752.202 67.7084L752.909 73.6666ZM754.923 73.4244L754.213 67.4666C751.312 67.8124 748.404 68.1578 745.486 68.4992L746.183 74.4586L746.88 80.4179C749.811 80.075 752.73 79.7283 755.633 79.3822L754.923 73.4244ZM758.906 72.9469L759.622 78.904C761.677 78.6571 763.732 78.4102 765.782 78.1608L765.058 72.2047L764.333 66.2486C762.293 66.4967 760.247 66.7425 758.191 66.9897L758.906 72.9469ZM765.058 72.2047L764.333 66.2486C762.293 66.4966 760.247 66.7426 758.191 66.9897L758.906 72.9469L759.622 78.904C761.678 78.657 763.732 78.4101 765.782 78.1608L765.058 72.2047ZM1352.42 24.7681L1350.23 30.3527C1350.62 30.5076 1351.01 30.6619 1351.4 30.8168L1353.63 25.2486L1355.87 19.6804C1355.45 19.5121 1355.03 19.3466 1354.62 19.1836L1352.42 24.7681ZM1353.63 25.2486L1355.87 19.6804C1355.04 19.346 1354.2 19.0176 1353.36 18.695L1351.21 24.2955L1349.05 29.896C1349.84 30.1983 1350.62 30.5051 1351.4 30.8168L1353.63 25.2486ZM1351.21 24.2955L1349.03 29.8878L1350.25 30.3604L1352.42 24.7681L1354.6 19.1759L1353.38 18.7032L1351.21 24.2955ZM1128.92 18.9381L1128.13 12.99C1126.7 13.1798 1125.26 13.3723 1123.82 13.5658L1124.62 19.5123L1125.42 25.4587C1126.86 25.2657 1128.29 25.0743 1129.71 24.8861L1128.92 18.9381ZM1124.62 19.5123L1125.42 25.4596L1129.71 24.8863L1128.92 18.939L1128.13 12.9918L1123.83 13.565L1124.62 19.5123ZM1128.92 18.939L1129.71 24.8871C1131.13 24.6986 1132.55 24.5123 1133.96 24.3282L1133.19 18.3785L1132.41 12.4288C1130.99 12.614 1129.56 12.8014 1128.13 12.991L1128.92 18.939ZM1133.19 18.3785L1132.41 12.4295L1128.14 12.989L1128.92 18.9381L1129.7 24.8871L1133.97 24.3275L1133.19 18.3785ZM1333.55 18.4976L1331.95 24.2805C1332.37 24.3982 1332.79 24.5158 1333.21 24.6342L1334.85 18.8619L1336.48 13.0896C1336.04 12.9624 1335.59 12.8376 1335.14 12.7147L1333.55 18.4976ZM1334.85 18.8619L1336.48 13.0896C1335.59 12.8373 1334.7 12.5896 1333.8 12.347L1332.24 18.1402L1330.68 23.9334C1331.52 24.1619 1332.37 24.3956 1333.21 24.6342L1334.85 18.8619ZM1332.24 18.1402L1330.66 23.9276L1331.96 24.285L1333.55 18.4976L1335.13 12.7103L1333.82 12.3528L1332.24 18.1402ZM1181.97 12.7701L1181.39 6.79772C1180.21 6.91218 1179.02 7.02985 1177.83 7.1482L1178.42 13.1187L1179.01 19.0893C1180.2 18.9713 1181.37 18.8551 1182.54 18.7425L1181.97 12.7701ZM1178.42 13.1187L1179.01 19.0893C1181.49 18.8426 1183.95 18.6054 1186.39 18.3793L1185.84 12.4049L1185.29 6.43046C1182.82 6.65934 1180.33 6.89921 1177.83 7.1482L1178.42 13.1187ZM1185.84 12.4049L1185.28 6.43142L1181.41 6.79666L1181.97 12.7701L1182.53 18.7435L1186.4 18.3783L1185.84 12.4049ZM1215.73 10.1148L1215.38 4.12512C1214.16 4.19661 1212.94 4.27194 1211.72 4.34951L1212.1 10.3375L1212.48 16.3255C1213.69 16.2487 1214.89 16.1746 1216.08 16.1045L1215.73 10.1148ZM1212.1 10.3375L1212.46 16.3264L1216.1 16.1047L1215.73 10.1158L1215.37 4.12693L1211.73 4.34861L1212.1 10.3375ZM1215.73 10.1158L1216.08 16.1055C1217.28 16.0352 1218.47 15.9677 1219.66 15.904L1219.34 9.91268L1219.01 3.92132C1217.81 3.98626 1216.59 4.05485 1215.38 4.1261L1215.73 10.1158ZM1219.34 9.91268L1219 3.92209L1215.39 4.12424L1215.73 10.1148L1216.07 16.1054L1219.67 15.9033L1219.34 9.91268Z" fill="white" mask="url(#path-1-outside-1_2147_15)"/>
</svg>
