<svg width="611" height="772" viewBox="0 0 611 772" fill="none" xmlns="http://www.w3.org/2000/svg">
<path d="M170.476 757.08C208.156 757.08 244.543 760.75 279.283 764.253C296.879 766.027 314.052 767.759 330.756 768.95C380.307 772.482 425.615 771.23 464.62 751.779C503.693 732.294 536.185 694.684 560.43 626.078C584.664 557.504 600.71 457.832 606.838 313.986C612.963 170.229 608.333 87.7605 594.867 44.1521C588.13 22.3389 579.079 9.90156 567.713 4.5813C556.344 -0.740691 543.124 1.27856 528.606 7.21528C514.072 13.1588 497.904 23.1698 480.456 34.3063C478.42 35.6057 476.367 36.9209 474.295 38.2475C458.57 48.3171 441.823 59.0413 424.178 68.5034C384.231 89.9245 339.998 104.7 293.327 90.6986C198.543 62.2629 124.604 73.8807 75.3985 115.846C26.2278 157.781 2.15017 229.689 6.32175 320.984C8.08889 359.658 6.18262 401.52 4.26895 443.545C3.93445 450.891 3.59973 458.242 3.28436 465.581C1.16692 514.859 -0.077081 563.623 5.54844 606.721C11.1732 649.813 23.6888 687.445 49.2583 714.303C74.869 741.204 113.366 757.08 170.476 757.08Z" fill="black" stroke="white" stroke-width="3"/>
</svg>
