<svg width="31" height="32" fill="none" xmlns="http://www.w3.org/2000/svg"><path fill-rule="evenodd" clip-rule="evenodd" d="M15.496 1.792c3.86 0 4.344.016 5.86.085 1.512.07 2.545.31 3.45.66.934.364 1.726.85 2.517 1.64a6.967 6.967 0 011.639 2.517c.351.904.592 1.938.66 3.45.07 1.516.086 2 .086 5.86 0 3.86-.016 4.344-.085 5.86-.07 1.513-.31 2.546-.661 3.45a6.968 6.968 0 01-1.64 2.517 6.967 6.967 0 01-2.517 1.64c-.904.35-1.937.591-3.45.66-1.515.07-2 .086-5.86.086-3.86 0-4.343-.017-5.86-.086-1.512-.069-2.545-.31-3.449-.66a6.967 6.967 0 01-2.517-1.64 6.967 6.967 0 01-1.64-2.517c-.351-.904-.591-1.937-.66-3.45-.07-1.516-.086-2-.086-5.86 0-3.86.017-4.344.086-5.86.069-1.512.309-2.546.66-3.45a6.966 6.966 0 011.64-2.517 6.966 6.966 0 012.517-1.64c.904-.35 1.937-.59 3.45-.66 1.516-.069 2-.085 5.86-.085zm0 2.56c-3.795 0-4.245.015-5.743.083-1.386.064-2.139.295-2.64.49A4.403 4.403 0 005.48 5.988c-.497.497-.805.97-1.063 1.634-.194.5-.426 1.253-.49 2.64-.068 1.498-.082 1.947-.082 5.742s.014 4.245.083 5.743c.063 1.386.295 2.139.49 2.64A4.403 4.403 0 005.48 26.02c.498.498.971.806 1.635 1.064.5.194 1.253.426 2.639.489 1.498.068 1.947.083 5.743.083 3.795 0 4.244-.015 5.743-.083 1.385-.063 2.138-.295 2.639-.49a4.402 4.402 0 001.634-1.063c.497-.497.805-.97 1.063-1.634.195-.5.426-1.253.49-2.639.068-1.498.082-1.948.082-5.743 0-3.795-.014-4.244-.083-5.743-.063-1.386-.294-2.138-.489-2.639a4.403 4.403 0 00-1.063-1.634 4.403 4.403 0 00-1.634-1.063c-.501-.195-1.254-.426-2.64-.49-1.498-.068-1.947-.082-5.742-.082zM20.114 16a4.614 4.614 0 11-9.228 0 4.614 4.614 0 019.228 0zM15.5 8.89a7.108 7.108 0 110 14.217 7.108 7.108 0 010-14.217zm7.582 1.232a1.705 1.705 0 100-3.411 1.705 1.705 0 000 3.41z" fill="#fff"/></svg>