<svg width="31" height="32" fill="none" xmlns="http://www.w3.org/2000/svg"><path d="M31 6.143a12.509 12.509 0 01-3.654 1.025 6.497 6.497 0 002.794-3.61 12.55 12.55 0 01-4.038 1.584 6.281 6.281 0 00-4.643-2.059c-3.51 0-6.359 2.923-6.359 6.524 0 .512.056 1.01.166 1.485-5.286-.27-9.97-2.87-13.106-6.818a6.633 6.633 0 00-.86 3.279 6.56 6.56 0 002.83 5.427 6.224 6.224 0 01-2.881-.816v.08c0 3.16 2.192 5.799 5.1 6.396a6.22 6.22 0 01-2.872.11c.81 2.59 3.16 4.478 5.94 4.53A12.553 12.553 0 010 25.985a17.67 17.67 0 009.75 2.932c11.695 0 18.091-9.94 18.091-18.56 0-.285-.004-.565-.018-.845a13.053 13.053 0 003.172-3.378l.005.01z" fill="#fff"/></svg>