<svg width="31" height="32" fill="none" xmlns="http://www.w3.org/2000/svg"><path fill-rule="evenodd" clip-rule="evenodd" d="M4.381 6.269c2.23-.602 11.11-.602 11.11-.602s8.9 0 11.129.638c1.21.328 2.176 1.332 2.492 2.59.614 2.317.597 7.132.597 7.132s0 4.798-.597 7.096a3.605 3.605 0 01-2.492 2.608c-2.23.602-11.129.602-11.129.602s-8.863 0-11.11-.62c-1.211-.346-2.176-1.35-2.51-2.608-.579-2.28-.579-7.096-.579-7.096s0-4.797.58-7.114c.333-1.258 1.315-2.28 2.509-2.626zm8.536 14.898l7.75-5.156-7.75-5.178v10.334z" fill="#fff"/></svg>